<svg xmlns="http://www.w3.org/2000/svg" viewBox="0 0 1000 1000"><title>attachment</title><path d="M667,250V727.69c0,87.12-66.43,160.69-153.28,167.6C415.26,903.12,333,825.77,333,729.17V209.61c0-59.51,49.3-107.93,108.75-105.26A104,104,0,0,1,541,208.25v436.9c0,24.09-19.72,43.61-43.77,42.29A41.73,41.73,0,0,1,458,645.83V250H396V644.64c0,59.51,49.3,107.94,108.75,105.26A104.14,104.14,0,0,0,604,645.83V210.09c0-96.25-80.66-173.85-176.74-168A166.46,166.46,0,0,0,271,208.25V727.33c0,130.89,107.08,235.81,237.87,230.84C631.32,953.51,729,852.86,729,729.17V250Z"/></svg>