<svg xmlns="http://www.w3.org/2000/svg" viewBox="0 0 1000 1000"><title>border-bottom</title><path d="M375,458.33H291.67v83.33H375ZM541.67,625H458.33v83.33h83.33ZM375,125H291.67v83.33H375ZM541.67,458.33H458.33v83.33h83.33ZM208.33,125H125v83.33h83.33ZM541.67,291.67H458.33V375h83.33ZM708.33,458.33H625v83.33h83.33ZM541.67,125H458.33v83.33h83.33Zm166.67,0H625v83.33h83.33Zm83.33,416.67H875V458.33H791.67Zm0,166.67H875V625H791.67ZM208.33,291.67H125V375h83.33ZM791.67,125v83.33H875V125Zm0,250H875V291.67H791.67ZM208.33,458.33H125v83.33h83.33ZM125,875H875V791.67H125Zm83.33-250H125v83.33h83.33Z"/></svg>