<svg xmlns="http://www.w3.org/2000/svg" viewBox="0 0 1000 1000"><title>border-top</title><path d="M625,541.67h83.33V458.33H625ZM458.33,375h83.33V291.67H458.33ZM625,875h83.33V791.67H625ZM458.33,541.67h83.33V458.33H458.33ZM791.67,875H875V791.67H791.67ZM458.33,708.33h83.33V625H458.33ZM291.67,541.67H375V458.33H291.67ZM458.33,875h83.33V791.67H458.33Zm-166.67,0H375V791.67H291.67ZM208.33,458.33H125v83.33h83.33Zm0-166.67H125V375h83.33ZM791.67,708.33H875V625H791.67ZM208.33,875V791.67H125V875Zm0-250H125v83.33h83.33Zm583.33-83.33H875V458.33H791.67ZM875,125H125v83.33H875ZM791.67,375H875V291.67H791.67Z"/></svg>