<svg xmlns="http://www.w3.org/2000/svg" viewBox="0 0 1000 1000"><title>border-right</title><path d="M458.33,625v83.33h83.33V625ZM625,458.33v83.33h83.33V458.33ZM125,625v83.33h83.33V625ZM458.33,458.33v83.33h83.33V458.33ZM125,791.67V875h83.33V791.67ZM291.67,458.33v83.33H375V458.33ZM458.33,291.67V375h83.33V291.67ZM125,458.33v83.33h83.33V458.33Zm0-166.67V375h83.33V291.67Zm416.67-83.33V125H458.33v83.33Zm166.67,0V125H625v83.33ZM291.67,791.67V875H375V791.67ZM125,208.33h83.33V125H125Zm250,0V125H291.67v83.33Zm83.33,583.33V875h83.33V791.67ZM875,875V125H791.67V875ZM625,791.67V875h83.33V791.67Z"/></svg>