<svg xmlns="http://www.w3.org/2000/svg" viewBox="0 0 1000 1000"><title>border-vertical</title><path d="M125,125v83.33h83.33V125Zm583.33,83.33V125H625v83.33ZM291.67,125v83.33H375V125ZM125,291.67V375h83.33V291.67Zm750-83.33V125H791.67v83.33ZM875,375V291.67H791.67V375Zm0,333.33V625H791.67v83.33ZM708.33,541.67V458.33H625v83.33Zm166.67,0V458.33H791.67v83.33Zm-583.33,250V875H375V791.67ZM125,458.33v83.33h83.33V458.33ZM458.33,125V875h83.33V125ZM875,791.67H791.67V875H875Zm-250,0V875h83.33V791.67ZM291.67,458.33v83.33H375V458.33ZM125,625v83.33h83.33V625Zm0,166.67V875h83.33V791.67Z"/></svg>