<svg xmlns="http://www.w3.org/2000/svg" viewBox="0 0 1000 1000"><title>border-inner</title><path d="M125,875h83.33V791.67H125Zm166.67,0H375V791.67H291.67ZM208.33,291.67H125V375h83.33ZM125,708.33h83.33V625H125ZM375,125H291.67v83.33H375Zm-166.67,0H125v83.33h83.33Zm500,0H625v83.33h83.33Zm83.33,250H875V291.67H791.67Zm0-250v83.33H875V125ZM625,875h83.33V791.67H625ZM541.67,125H458.33V458.33H125v83.33H458.33V875h83.33V541.67H875V458.33H541.67Zm250,750H875V791.67H791.67Zm0-166.67H875V625H791.67Z"/></svg>