<svg xmlns="http://www.w3.org/2000/svg" viewBox="0 0 1000 1000"><title>border-horizontal</title><path d="M125,875h83.33V791.67H125Zm83.33-583.33H125V375h83.33ZM125,708.33h83.33V625H125ZM291.67,875H375V791.67H291.67ZM208.33,125H125v83.33h83.33ZM375,125H291.67v83.33H375Zm333.33,0H625v83.33h83.33ZM541.67,291.67H458.33V375h83.33Zm0-166.67H458.33v83.33h83.33Zm250,583.33H875V625H791.67ZM458.33,875h83.33V791.67H458.33ZM125,541.67H875V458.33H125ZM791.67,125v83.33H875V125Zm0,250H875V291.67H791.67ZM458.33,708.33h83.33V625H458.33ZM625,875h83.33V791.67H625Zm166.67,0H875V791.67H791.67Z"/></svg>