<svg xmlns="http://www.w3.org/2000/svg" viewBox="0 0 1000 1000"><title>border-left</title><path d="M541.67,375V291.67H458.33V375ZM375,541.67V458.33H291.67v83.33ZM875,375V291.67H791.67V375ZM541.67,541.67V458.33H458.33v83.33ZM875,208.33V125H791.67v83.33ZM708.33,541.67V458.33H625v83.33ZM541.67,708.33V625H458.33v83.33ZM875,541.67V458.33H791.67v83.33Zm0,166.67V625H791.67v83.33ZM458.33,791.67V875h83.33V791.67Zm-166.67,0V875H375V791.67ZM708.33,208.33V125H625v83.33ZM875,791.67H791.67V875H875Zm-250,0V875h83.33V791.67ZM541.67,208.33V125H458.33v83.33ZM125,125V875h83.33V125Zm250,83.33V125H291.67v83.33Z"/></svg>