<svg xmlns="http://www.w3.org/2000/svg" viewBox="0 0 1000 1000"><title>border-none</title><path d="M291.67,208.33H375V125H291.67Zm0,333.33H375V458.33H291.67Zm0,333.33H375V791.67H291.67ZM458.33,708.33h83.33V625H458.33Zm0,166.67h83.33V791.67H458.33ZM125,875h83.33V791.67H125Zm0-166.67h83.33V625H125Zm0-166.67h83.33V458.33H125ZM125,375h83.33V291.67H125Zm0-166.67h83.33V125H125ZM458.33,541.67h83.33V458.33H458.33ZM791.67,708.33H875V625H791.67Zm0-166.67H875V458.33H791.67Zm0,333.33H875V791.67H791.67Zm0-500H875V291.67H791.67Zm-333.33,0h83.33V291.67H458.33ZM791.67,125v83.33H875V125ZM458.33,208.33h83.33V125H458.33ZM625,875h83.33V791.67H625Zm0-333.33h83.33V458.33H625Zm0-333.33h83.33V125H625Z"/></svg>