<svg xmlns="http://www.w3.org/2000/svg" viewBox="0 0 1000 1000"><title>close-circle-o</title><path d="M708,649.25,649.25,708,499.67,558.42,350.08,708l-58.75-58.75L440.92,499.67,291.33,350.08l58.75-58.75L499.67,440.92,649.25,291.33,708,350.08,558.42,499.67ZM499.25,83C269.25,83,83,269.67,83,499.67S269.25,916.33,499.25,916.33c230.42,0,417.08-186.67,417.08-416.67S729.67,83,499.25,83Zm.42,750C315.5,833,166.33,683.83,166.33,499.67S315.5,166.33,499.67,166.33,833,315.5,833,499.67,683.83,833,499.67,833Z"/></svg>