<svg xmlns="http://www.w3.org/2000/svg" viewBox="0 0 1000 1000"><title>collaborators</title><path d="M345.83,472.92c25,0,45.83-8.33,66.67-20.83,29.17-20.83,50-58.33,50-95.83,0-41.67-20.83-75-50-95.83-20.83-16.67-41.67-25-66.67-25-62.5,0-116.67,54.17-116.67,116.67C229.17,418.75,279.17,472.92,345.83,472.92Zm300,0c25,0,45.83-8.33,66.67-20.83,29.17-20.83,50-58.33,50-95.83,0-41.67-20.83-75-50-95.83-20.83-12.5-41.67-20.83-66.67-20.83-62.5,0-116.67,54.17-116.67,116.67S579.17,472.92,645.83,472.92ZM658.17,540c-41.75,0-83.49,8.33-121.06,20.83C612.25,585.83,654,631.67,654,669.17V765H917V669.17C917,615,779.24,540,658.17,540ZM474.54,560.83C437.06,548.33,387.07,540,345.42,540,224.62,540,83,619.17,83,669.17V765H612V669.17C612,635.83,553.69,590,474.54,560.83Z"/></svg>