<svg xmlns="http://www.w3.org/2000/svg" viewBox="0 0 1000 1000"><title>eye-slash</title><path d="M500.21,270.83c115,0,208.33,93.33,208.33,208.33a202.22,202.22,0,0,1-15,76.25L815.21,677.08A492.39,492.39,0,0,0,958.12,479.17c-72.08-182.92-250-312.5-458.33-312.5A485.22,485.22,0,0,0,334,195.83l90,90A202.22,202.22,0,0,1,500.21,270.83ZM83.54,157.08l95,95,19.17,19.17A491.83,491.83,0,0,0,41.88,479.17c72.08,182.92,250,312.5,458.33,312.5a490.67,490.67,0,0,0,182.5-35l17.5,17.5L822.29,895.83l52.92-52.92L136.46,104.17ZM314,387.5l64.58,64.58a117.55,117.55,0,0,0-3.33,27.08,124.83,124.83,0,0,0,125,125,117.55,117.55,0,0,0,27.08-3.33l64.58,64.58C564,679.17,533.13,687.5,500.21,687.5c-115,0-208.33-93.33-208.33-208.33C291.88,446.25,300.21,415.42,314,387.5ZM493.54,355,624.79,486.25l.83-6.67a124.83,124.83,0,0,0-125-125Z"/></svg>