<svg xmlns="http://www.w3.org/2000/svg" viewBox="0 0 1000 1000"><title>fire</title><path d="M562.5,27.92s30.83,110.42,30.83,200c0,85.83-56.25,155.42-142.08,155.42C365,383.33,300,313.75,300,227.92l1.25-15c-84.17,100-134.58,229.58-134.58,370.42,0,184.17,149.17,333.33,333.33,333.33S833.33,767.5,833.33,583.33C833.33,358.75,725.42,158.33,562.5,27.92ZM487.92,791.67c-74.17,0-134.17-58.33-134.17-130.83,0-67.5,43.75-115,117.08-130,73.75-15,150-50.42,192.5-107.5a581.38,581.38,0,0,1,24.58,168.33C687.92,702.08,598.33,791.67,487.92,791.67Z"/></svg>