<svg xmlns="http://www.w3.org/2000/svg" viewBox="0 0 1000 1000"><title>heart-o</title><path d="M687.5,125C615,125,545.42,158.75,500,212.08,454.58,158.75,385,125,312.5,125,184.17,125,83.33,225.83,83.33,354.17,83.33,511.67,225,640,439.58,835L500,889.58l60.42-55C775,640,916.67,511.67,916.67,354.17,916.67,225.83,815.83,125,687.5,125ZM504.17,772.92,500,777.08l-4.17-4.17C297.5,593.33,166.67,474.58,166.67,354.17c0-83.33,62.5-145.83,145.83-145.83,64.17,0,126.67,41.25,148.75,98.33h77.92c21.67-57.08,84.17-98.33,148.33-98.33,83.33,0,145.83,62.5,145.83,145.83C833.33,474.58,702.5,593.33,504.17,772.92Z"/></svg>