<svg xmlns="http://www.w3.org/2000/svg" viewBox="0 0 1000 1000"><title>language</title><path d="M499.58,83.33C269.58,83.33,83.33,270,83.33,500S269.58,916.67,499.58,916.67C730,916.67,916.67,730,916.67,500S730,83.33,499.58,83.33Zm288.75,250H665.42c-13.33-52.08-32.5-102.08-57.5-148.33A334.57,334.57,0,0,1,788.33,333.33ZM500,168.33a587,587,0,0,1,79.58,165H420.42A587,587,0,0,1,500,168.33Zm-322.5,415c-6.67-26.67-10.83-54.58-10.83-83.33s4.17-56.67,10.83-83.33H318.33c-3.33,27.5-5.83,55-5.83,83.33s2.5,55.83,5.83,83.33Zm34.17,83.33H334.58c13.33,52.08,32.5,102.08,57.5,148.33A332.78,332.78,0,0,1,211.67,666.67ZM334.58,333.33H211.67A332.78,332.78,0,0,1,392.08,185C367.08,231.25,347.92,281.25,334.58,333.33ZM500,831.67a587,587,0,0,1-79.58-165H579.58A587,587,0,0,1,500,831.67Zm97.5-248.33h-195c-3.75-27.5-6.67-55-6.67-83.33s2.92-56.25,6.67-83.33h195c3.75,27.08,6.67,55,6.67,83.33S601.25,555.83,597.5,583.33ZM607.92,815c25-46.25,44.17-96.25,57.5-148.33H788.33A334.57,334.57,0,0,1,607.92,815Zm73.75-231.67c3.33-27.5,5.83-55,5.83-83.33s-2.5-55.83-5.83-83.33H822.5c6.67,26.67,10.83,54.58,10.83,83.33s-4.17,56.67-10.83,83.33Z"/></svg>