<svg xmlns="http://www.w3.org/2000/svg" viewBox="0 0 1000 1000"><title>lock-outline</title><path d="M500,708.33A83.33,83.33,0,1,0,416.67,625,83.58,83.58,0,0,0,500,708.33ZM750.67,333H708V251.36c0-108.74-88.75-204.08-197.34-209.74C390.51,35.36,291,131,291,249.67V333H250.33A83.58,83.58,0,0,0,167,416.33V832.67A83.58,83.58,0,0,0,250.33,916H750.67A83.58,83.58,0,0,0,834,832.67V416.33A83.58,83.58,0,0,0,750.67,333ZM371,249.67c0-70.45,56.55-127.86,126.61-129.14C570,119.2,629,178.6,629,251v82H371ZM750,833H250V416H750Z"/></svg>