<svg xmlns="http://www.w3.org/2000/svg" viewBox="0 0 1000 1000"><title>lock-open-outline</title><path d="M500,708.33A83.33,83.33,0,1,0,416.67,625,83.58,83.58,0,0,0,500,708.33ZM750.67,333H708V252.43C708,131.6,609.19,36.2,488.54,42.82c-109.38,6-196.33,96.52-196.33,207.18h79c0-69.17,54.9-125.72,123.51-128.54C568.2,118.44,629,178.27,629,251.81V333H250.33A83.58,83.58,0,0,0,167,416.33V832.67A83.58,83.58,0,0,0,250.33,916H750.67A83.58,83.58,0,0,0,834,832.67V416.33A83.58,83.58,0,0,0,750.67,333ZM750,833H250V416H750Z"/></svg>