<svg xmlns="http://www.w3.org/2000/svg" viewBox="0 0 1000 1000"><title>lookup</title><path d="M435.82,307.17A128.65,128.65,0,1,0,564.47,435.82,128.47,128.47,0,0,0,435.82,307.17Z"/><path d="M791.67,125H208.33A83.31,83.31,0,0,0,125,208.33V791.67A83.31,83.31,0,0,0,208.33,875H791.67A83.31,83.31,0,0,0,875,791.67V208.33A83.31,83.31,0,0,0,791.67,125ZM706.94,749.53,564,606.88V584.3l-7.72-8a185,185,0,0,1-125.09,44.84c-100.07-2.21-180.9-84.24-181.65-184.33A185.82,185.82,0,0,1,436.81,249.54c100.09.76,182.12,81.59,184.32,181.66a185,185,0,0,1-44.84,125.08l8,7.72h22.59L749.53,706.94Z"/></svg>