<svg xmlns="http://www.w3.org/2000/svg" viewBox="0 0 1000 1000"><title>number-format</title><path d="M792,209V792H209V209H792m-.33-84H208.33A83.58,83.58,0,0,0,125,208.33V791.67A83.58,83.58,0,0,0,208.33,875H791.67A83.58,83.58,0,0,0,875,791.67V208.33A83.58,83.58,0,0,0,791.67,125Z"/><polygon points="583 459 667 459 667 479 625 479 625 521 667 521 667 542 583 542 583 584 708 584 708 417 583 417 583 459"/><polygon points="334 583 375 583 375 416 292 416 292 458 334 458 334 583"/><polygon points="417 459 492 459 417 547.2 417 583 542 583 542 541 467 541 542 452.8 542 417 417 417 417 459"/></svg>