<svg xmlns="http://www.w3.org/2000/svg" viewBox="0 0 1000 1000"><title>question-circle-o</title><path d="M458.33,750h83.33V666.67H458.33ZM500,83.33C270,83.33,83.33,270,83.33,500S270,916.67,500,916.67,916.67,730,916.67,500,730,83.33,500,83.33Zm0,750c-183.75,0-333.33-149.58-333.33-333.33S316.25,166.67,500,166.67,833.33,316.25,833.33,500,683.75,833.33,500,833.33ZM500,250A166.62,166.62,0,0,0,333.33,416.67h83.33a83.33,83.33,0,1,1,166.67,0c0,83.33-125,72.92-125,208.33h83.33c0-93.75,125-104.17,125-208.33A166.62,166.62,0,0,0,500,250Z"/></svg>