<svg xmlns="http://www.w3.org/2000/svg" viewBox="0 0 1000 1000"><title>settings</title><path d="M808.85,540.32a324.57,324.57,0,0,0,2.92-40.82,324.59,324.59,0,0,0-2.92-40.82L896.73,390c7.91-6.25,10-17.49,5-26.66L818.43,219.2c-5-9.16-16.24-12.5-25.41-9.16L689.31,251.68a304.3,304.3,0,0,0-70.39-40.82L603.1,100.49A20.31,20.31,0,0,0,582.69,83H416.09a20.31,20.31,0,0,0-20.41,17.49L379.85,210.87c-25.41,10.41-48.73,24.57-70.39,40.82L205.76,210a20.32,20.32,0,0,0-25.41,9.16L97,363.3A20.53,20.53,0,0,0,102,390l87.88,68.72A330.31,330.31,0,0,0,187,499.5a330.31,330.31,0,0,0,2.92,40.82L102,609c-7.91,6.25-10,17.49-5,26.66l83.3,144.11c5,9.16,16.24,12.49,25.41,9.16l103.71-41.65a304.3,304.3,0,0,0,70.39,40.82l15.83,110.37A20.31,20.31,0,0,0,416.09,916h166.6a20.31,20.31,0,0,0,20.41-17.49l15.83-110.37c25.41-10.41,48.73-24.57,70.39-40.82L793,789a20.32,20.32,0,0,0,25.41-9.16l83.3-144.11c5-9.16,2.92-20.41-5-26.66ZM499.39,645.5c-80.42,0-145.83-65.42-145.83-145.83S419,353.83,499.39,353.83s145.83,65.42,145.83,145.83S579.81,645.5,499.39,645.5Z"/></svg>