<svg xmlns="http://www.w3.org/2000/svg" viewBox="0 0 1000 1000"><title>sort-arrow-both</title><path d="M654.41,375a33.07,33.07,0,0,1-21.71-8L500,253.14,367.33,367a33.43,33.43,0,0,1-46.68-3.13,32.28,32.28,0,0,1,3.18-46L500,166.67,676.12,317.83a32.21,32.21,0,0,1,3.22,46A33.17,33.17,0,0,1,654.41,375ZM345.59,625a33.07,33.07,0,0,1,21.71,8L500,746.86,632.67,633a33.43,33.43,0,0,1,46.68,3.13,32.28,32.28,0,0,1-3.18,46L500,833.33,323.88,682.17a32.21,32.21,0,0,1-3.22-46A33.17,33.17,0,0,1,345.59,625Z"/></svg>