<svg xmlns="http://www.w3.org/2000/svg" viewBox="0 0 1000 1000"><title>sort-alpha-asc</title><path d="M644.35,295.76h74.08l-30.13-91.24-5-19.67q-.84-6.7-.84-8.37h-1.67l-1.26,8.37q0,.42-1.46,7.53a107.59,107.59,0,0,1-3.14,12.14ZM453.92,727.68q0,5-4.19,10L316.22,871.23A14,14,0,0,1,306.6,875a15,15,0,0,1-9.63-3.77L163,737.3q-6.28-6.7-2.93-14.65,3.35-8.37,12.56-8.37H253V138.39A12.89,12.89,0,0,1,266.42,125h80.36a12.89,12.89,0,0,1,13.39,13.39V714.29h80.36a12.89,12.89,0,0,1,13.39,13.39Zm349.89,49.8V875H559.39V837.33l154.44-221.4a76.39,76.39,0,0,1,8.79-11.3l4.6-3.77v-1.26q-.84,0-2.72.21a29.33,29.33,0,0,1-3.14.21,52.82,52.82,0,0,1-12.56,1.26H611.7v48.13H561.48V553.57h237.3v37.25L644.35,812.64q-2.51,3.35-8.79,10.88l-4.6,4.6V829l5.86-.84a65.24,65.24,0,0,1,12.56-.84H753.16v-49.8Zm37.25-375.42v44.36H720.52V402.06h31.39L732.24,341.8H630.53l-19.67,60.27h31.39v44.36H522.14V402.06h29.3L647.69,125h67.8l96.26,277.06Z"/></svg>