<svg xmlns="http://www.w3.org/2000/svg" viewBox="0 0 1000 1000"><title>star-o</title><path d="M643,584.17,786.41,445,588.59,415.89,500,236.83,411.41,415.89,213.59,445,357,584.17,322.81,781.52,500,688.23l176.72,93.28ZM915,411.5q0,11-13,23.94L721,612l42.9,249.4a75.42,75.42,0,0,1,.5,10q0,24.94-20.45,24.94-9.48,0-20-6L500,772.63,276,890.34q-11,6-20,6-10.47,0-15.71-7.23t-5.24-17.71a81,81,0,0,1,1-10L279,612,97.47,435.44Q85,422,85,411.5q0-18.46,27.93-22.94l250.4-36.41,112.23-228Q485,103.67,500,103.67t24.44,20.45l112.23,228,250.4,36.41Q915,393,915,411.5Z"/></svg>