<svg xmlns="http://www.w3.org/2000/svg" viewBox="0 0 1000 1000"><title>strikethrough</title><path d="M301.67,426.88c-10.83-20-16.25-42.92-16.25-69.58,0-25.42,5.42-48.33,16.67-69.58q16.25-31.25,46.25-53.75c20-14.58,43.75-26.25,70.83-34.58,27.5-7.92,57.92-12.08,90.83-12.08,33.75,0,64.17,4.58,92.08,14.17,27.5,9.17,51.25,22.5,70.42,39.17a169.77,169.77,0,0,1,45,59.58c10.42,22.92,15.83,47.92,15.83,75.42H607.92a97.32,97.32,0,0,0-6.25-35.42,68.14,68.14,0,0,0-18.33-28.33c-8.33-7.92-18.75-13.75-31.25-18.33a140.66,140.66,0,0,0-44.17-6.67c-16.25,0-30.83,1.67-42.92,5.42s-22.08,8.75-30,15c-7.92,6.67-14.17,14.17-18.33,22.92a63.21,63.21,0,0,0-6.25,27.5c0,20,10.42,36.67,30.83,50.42,15.83,10.42,32.08,20,58.75,29.17H307.92C305.83,434,303.33,430.21,301.67,426.88ZM875,562.29V479H125v83.33H525.83c7.5,2.92,16.67,5.83,22.92,8.33q23.12,10.63,36.25,21.25c8.75,7.08,14.58,15,17.92,23.75a86.68,86.68,0,0,1,4.58,28.75,69.3,69.3,0,0,1-5.83,27.5A58.86,58.86,0,0,1,584.17,694c-7.92,6.25-17.5,10.83-29.58,14.58A158.74,158.74,0,0,1,512.5,714c-17.92,0-34.58-1.67-49.17-5.42S435.83,699,425.42,691a80,80,0,0,1-24.58-31.25c-5.83-12.92-10.42-31.67-10.42-50.42H266.67c0,22.92,3.33,47.08,10,65.83s15.42,35.42,27.08,50.42A188.23,188.23,0,0,0,344.58,764,237.09,237.09,0,0,0,395.42,791a325.74,325.74,0,0,0,57.5,16.25,365,365,0,0,0,60,5.42c33.33,0,63.75-3.75,90.83-11.67s50.42-18.75,69.58-32.92a147.31,147.31,0,0,0,44.58-52.92c10.42-20.83,15.83-44.58,15.83-71.25,0-25-4.17-47.5-12.92-67.08a142.19,142.19,0,0,0-7.08-13.75H875Z" style="fill:#010101"/></svg>